<?xml version="1.0" encoding="UTF-8" standalone="no"?>
<!-- Created with Inkscape (http://www.inkscape.org/) -->

<svg
   xmlns:dc="http://purl.org/dc/elements/1.1/"
   xmlns:cc="http://creativecommons.org/ns#"
   xmlns:rdf="http://www.w3.org/1999/02/22-rdf-syntax-ns#"
   xmlns:svg="http://www.w3.org/2000/svg"
   xmlns="http://www.w3.org/2000/svg"
   xmlns:sodipodi="http://sodipodi.sourceforge.net/DTD/sodipodi-0.dtd"
   xmlns:inkscape="http://www.inkscape.org/namespaces/inkscape"
   width="210mm"
   height="297mm"
   viewBox="0 0 210 297"
   version="1.1"
   id="svg8"
   inkscape:version="0.92.1 r15371"
   sodipodi:docname="expand.svg">
  <defs
     id="defs2" />
  <sodipodi:namedview
     id="base"
     pagecolor="#ffffff"
     bordercolor="#666666"
     borderopacity="1.0"
     inkscape:pageopacity="0.0"
     inkscape:pageshadow="2"
     inkscape:zoom="0.49497475"
     inkscape:cx="-138.11213"
     inkscape:cy="641.19832"
     inkscape:document-units="mm"
     inkscape:current-layer="layer1"
     showgrid="false"
     inkscape:window-width="1920"
     inkscape:window-height="1027"
     inkscape:window-x="1272"
     inkscape:window-y="-8"
     inkscape:window-maximized="1" />
  <metadata
     id="metadata5">
    <rdf:RDF>
      <cc:Work
         rdf:about="">
        <dc:format>image/svg+xml</dc:format>
        <dc:type
           rdf:resource="http://purl.org/dc/dcmitype/StillImage" />
        <dc:title />
      </cc:Work>
    </rdf:RDF>
  </metadata>
  <g
     inkscape:label="Layer 1"
     inkscape:groupmode="layer"
     id="layer1">
    <g
       style="display:block"
       id="g3699"
       transform="matrix(0.35541131,0,0,0.35541131,33.171569,78.178686)">
      <g
         id="svgg">
        <path
           d=""
           id="path0"
           inkscape:connector-curvature="0"
           style="fill:#e1e1e1;fill-rule:evenodd;stroke:none" />
        <path
           d=""
           id="path1"
           inkscape:connector-curvature="0"
           style="fill:#e4e4e4;fill-rule:evenodd;stroke:none" />
        <path
           d="M 4.772,0.645 C 4.654,0.999 4.079,1.358 3.494,1.444 2.42,1.602 0.575,3.053 1.448,3.053 c 0.259,0 0.037,0.435 -0.495,0.967 -1.149,1.149 -1.473,97.354 -0.328,97.354 0.328,0 0.596,0.294 0.596,0.654 0,0.846 1.554,2.399 2.4,2.399 0.359,0 0.654,0.275 0.654,0.611 0,0.336 1.374,0.611 3.053,0.611 1.742,0 3.054,-0.278 3.054,-0.647 0,-0.356 0.273,-0.478 0.608,-0.271 1.004,0.621 3.481,-2.592 3.886,-5.04 0.208,-1.257 0.381,-18.294 0.384,-37.859 0.004,-19.565 0.214,-35.572 0.467,-35.572 0.724,0 71.975,71.445 71.294,71.489 -0.335,0.021 0.027,0.293 0.804,0.605 0.778,0.312 1.242,0.844 1.033,1.183 -0.209,0.339 0.064,0.616 0.608,0.616 0.543,0 0.818,0.274 0.61,0.61 -0.207,0.336 0.068,0.611 0.611,0.611 0.543,0 0.818,0.275 0.611,0.611 -0.208,0.336 0.067,0.61 0.61,0.61 0.545,0 0.808,0.293 0.586,0.652 -0.222,0.359 0.171,0.802 0.873,0.986 0.702,0.183 1.125,0.577 0.941,0.875 -0.184,0.297 0.026,0.541 0.467,0.541 1.088,0 83.707,82.688 83.163,83.232 -0.237,0.238 -0.036,0.432 0.447,0.432 0.483,0 3.139,2.272 5.902,5.05 l 5.023,5.049 -43.662,43.647 c -24.015,24.006 -43.663,43.934 -43.663,44.284 0,0.908 -6.294,7.008 -7.231,7.008 -0.429,0 -0.63,0.244 -0.446,0.541 0.184,0.298 -0.239,0.692 -0.941,0.875 -0.702,0.184 -1.095,0.627 -0.873,0.986 0.222,0.359 -0.041,0.652 -0.586,0.652 -0.543,0 -0.818,0.274 -0.61,0.61 0.207,0.336 -0.068,0.611 -0.611,0.611 -0.543,0 -0.818,0.275 -0.611,0.611 0.208,0.336 -0.067,0.61 -0.61,0.61 -0.545,0 -0.808,0.293 -0.586,0.652 0.222,0.359 -0.171,0.802 -0.873,0.986 -0.702,0.183 -1.157,0.525 -1.013,0.759 0.325,0.525 -70.947,71.869 -71.372,71.445 -0.167,-0.168 -0.384,-17.057 -0.482,-37.531 -0.209,-43.771 0.269,-41.095 -7.424,-41.548 -3.003,-0.177 -3.581,0.076 -6.253,2.738 l -1.476,1.471 0.02,48.118 c 0.019,42.608 0.129,48.227 0.967,49.064 0.52,0.52 0.769,0.946 0.553,0.946 -0.216,0 0.019,0.412 0.523,0.916 0.504,0.503 1.348,0.916 1.876,0.916 0.528,0 0.959,0.278 0.959,0.617 0,1.239 95.297,0.767 96.674,-0.479 0.64,-0.58 1.342,-0.917 1.559,-0.749 0.216,0.168 0.665,-0.313 0.996,-1.069 0.332,-0.755 0.813,-1.374 1.069,-1.374 0.256,0 0.466,-1.374 0.466,-3.053 0,-1.742 -0.278,-3.054 -0.647,-3.054 -0.356,0 -0.478,-0.273 -0.271,-0.608 0.534,-0.863 -2.461,-3.467 -4.441,-3.862 -0.915,-0.183 -17.861,-0.357 -37.658,-0.388 -19.796,-0.03 -36.065,-0.127 -36.154,-0.216 -0.088,-0.088 38.988,-39.309 86.837,-87.157 l 86.997,-86.995 41.793,41.79 c 22.987,22.984 41.656,42.012 41.488,42.285 -0.169,0.272 0.138,0.495 0.682,0.495 0.545,0 0.807,0.292 0.585,0.652 -0.221,0.358 0.171,0.802 0.873,0.985 0.702,0.184 1.126,0.577 0.942,0.875 -0.184,0.298 0.11,0.541 0.653,0.541 0.544,0 0.819,0.275 0.611,0.611 -0.208,0.336 0.067,0.611 0.611,0.611 0.543,0 0.837,0.243 0.653,0.541 -0.184,0.298 0.24,0.691 0.942,0.875 0.702,0.183 1.094,0.627 0.873,0.985 -0.222,0.359 -0.041,0.652 0.401,0.652 0.442,0 19.347,18.55 42.012,41.221 l 41.208,41.222 -36.022,0.068 c -39.092,0.074 -39.972,0.105 -40.974,1.459 -0.373,0.504 -0.992,0.916 -1.374,0.916 -0.636,0 -0.953,0.818 -0.769,1.984 0.04,0.252 -0.134,0.459 -0.385,0.461 -1.773,0.01 -0.684,6.042 1.467,8.132 l 2.258,2.193 47.82,0.04 c 37.617,0.031 48.11,-0.126 49.182,-0.736 1.606,-0.915 3.192,-2.303 2.631,-2.303 -0.216,0 0.036,-0.428 0.559,-0.952 1.132,-1.132 1.469,-97.369 0.34,-97.369 -0.326,0 -0.593,-0.312 -0.593,-0.693 0,-1.874 -3.148,-3.638 -6.168,-3.456 -1.646,0.099 -2.992,0.386 -2.993,0.638 0,0.251 -0.595,0.458 -1.323,0.458 -0.728,0 -1.151,0.171 -0.942,0.381 0.21,0.209 -0.225,0.872 -0.967,1.472 l -1.348,1.091 -0.305,37.603 -0.306,37.602 L 297.564,286.861 210.7,200 l 87.016,-87.013 87.017,-87.014 0.045,36.021 c 0.054,42.555 -0.104,40.79 3.821,42.748 3.377,1.685 11.179,-0.036 9.857,-2.175 -0.151,-0.244 0.125,-0.775 0.613,-1.18 1.399,-1.161 1.37,-95.975 -0.029,-97.375 -0.528,-0.527 -0.783,-0.959 -0.567,-0.959 0.558,0 -1.023,-1.387 -2.608,-2.288 -1.687,-0.96 -97.239,-1.091 -97.239,-0.134 0,0.325 -0.394,0.59 -0.874,0.59 -2.458,0 -4.223,6.313 -2.756,9.855 1.643,3.966 0.615,3.867 42.068,4.065 l 37.521,0.179 -41.181,41.195 c -22.65,22.657 -41.543,41.195 -41.985,41.195 -0.442,0 -0.623,0.293 -0.401,0.652 0.221,0.358 -0.171,0.802 -0.873,0.985 -0.702,0.184 -1.126,0.577 -0.942,0.875 0.184,0.298 -0.11,0.541 -0.653,0.541 -0.544,0 -0.819,0.275 -0.611,0.611 0.208,0.336 0.015,0.611 -0.428,0.611 -0.443,0 -20.379,19.581 -44.302,43.513 l -43.498,43.513 -86.87,-86.872 -86.87,-86.872 34.801,-0.005 c 19.14,-0.003 36.245,-0.179 38.01,-0.391 3.233,-0.388 6.722,-2.63 5.975,-3.839 -0.192,-0.311 -0.07,-0.739 0.271,-0.95 1.534,-0.947 0.673,-5.581 -1.456,-7.839 L 101.495,0.041 53.241,0.022 C 20.008,0.009 4.92,0.203 4.772,0.645"
           id="path2"
           inkscape:connector-curvature="0"
           style="fill:#ededed;fill-rule:evenodd;stroke:none" />
        <path
           d="m 31.145,20.458 c 2.84,2.855 5.301,5.191 5.469,5.191 0.168,0 -2.018,-2.336 -4.858,-5.191 -2.84,-2.855 -5.302,-5.191 -5.469,-5.191 -0.168,0 2.018,2.336 4.858,5.191 m 337.696,0.153 -5.177,5.343 5.344,-5.177 c 2.939,-2.848 5.343,-5.252 5.343,-5.344 0,-0.444 -0.701,0.215 -5.51,5.178 M 51.298,61.985 C 70.944,81.634 87.156,97.71 87.324,97.71 87.492,97.71 71.555,81.634 51.908,61.985 32.262,42.336 16.05,26.26 15.882,26.26 c -0.168,0 15.769,16.076 35.416,35.725 m 21.374,0 C 92.318,81.634 108.53,97.71 108.698,97.71 108.866,97.71 92.929,81.634 73.282,61.985 53.636,42.336 37.424,26.26 37.256,26.26 c -0.168,0 15.769,16.076 35.416,35.725 m 254.654,0.152 -35.723,35.878 35.878,-35.723 c 33.35,-33.207 36.152,-36.032 35.723,-36.032 -0.085,0 -16.23,16.145 -35.878,35.877 m 21.374,0 -35.723,35.878 35.878,-35.723 c 19.733,-19.648 35.878,-35.793 35.878,-35.878 0,-0.429 -2.826,2.373 -36.033,35.723 m -212.211,85.039 c 22.837,22.839 41.66,41.526 41.828,41.526 0.168,0 -18.38,-18.687 -41.218,-41.526 -22.838,-22.84 -41.661,-41.527 -41.828,-41.527 -0.168,0 18.38,18.687 41.218,41.527 m 21.679,0.305 c 23.006,23.008 41.966,41.832 42.134,41.832 0.168,0 -18.518,-18.824 -41.523,-41.832 -23.006,-23.008 -41.966,-41.832 -42.134,-41.832 -0.168,0 18.517,18.824 41.523,41.832 m 105.342,-0.153 -41.525,41.68 41.679,-41.525 c 22.924,-22.839 41.68,-41.595 41.68,-41.68 0,-0.428 -3.233,2.781 -41.834,41.525 m -79.676,47.182 c 2.845,3.027 5.299,5.421 5.451,5.32 0.153,-0.1 -2.175,-2.576 -5.174,-5.502 l -5.451,-5.32 5.174,5.502 m 32.189,0.153 -5.325,5.351 47.475,47.321 47.476,47.321 -47.177,-47.331 -47.177,-47.331 5.34,-5.34 c 2.938,-2.938 5.2,-5.341 5.027,-5.341 -0.172,0 -2.71,2.408 -5.639,5.35 m -57.857,58.009 -41.83,41.984 41.985,-41.83 41.984,-41.83 41.985,41.83 41.985,41.83 -41.831,-41.984 c -23.006,-23.092 -41.969,-41.985 -42.139,-41.985 -0.169,0 -19.132,18.893 -42.139,41.985 m -59.866,38.473 -3.338,3.511 3.511,-3.337 c 3.263,-3.101 3.791,-3.685 3.338,-3.685 -0.095,0 -1.675,1.58 -3.511,3.511 M 51.296,338.168 15.573,374.046 51.45,338.323 c 19.733,-19.648 35.878,-35.793 35.878,-35.878 0,-0.429 -2.826,2.373 -36.032,35.723 m 21.374,0 -35.723,35.878 35.877,-35.723 c 19.733,-19.648 35.878,-35.793 35.878,-35.878 0,-0.429 -2.826,2.373 -36.032,35.723 m 254.658,-0.153 c 19.647,19.649 35.859,35.725 36.027,35.725 0.168,0 -15.769,-16.076 -35.416,-35.725 -19.647,-19.649 -35.859,-35.725 -36.027,-35.725 -0.168,0 15.77,16.076 35.416,35.725 m 21.374,0 c 19.647,19.649 35.859,35.725 36.027,35.725 0.168,0 -15.769,-16.076 -35.416,-35.725 -19.647,-19.649 -35.859,-35.725 -36.027,-35.725 -0.168,0 15.77,16.076 35.416,35.725 m -317.57,41.68 -5.178,5.343 5.344,-5.177 c 2.939,-2.848 5.343,-5.252 5.343,-5.344 0,-0.444 -0.701,0.215 -5.509,5.178 m 337.723,-0.153 c 2.84,2.855 5.301,5.191 5.469,5.191 0.168,0 -2.018,-2.336 -4.858,-5.191 -2.84,-2.855 -5.302,-5.191 -5.47,-5.191 -0.168,0 2.019,2.336 4.859,5.191"
           id="path3"
           inkscape:connector-curvature="0"
           style="fill:#eeeeee;fill-rule:evenodd;stroke:none" />
        <path
           d="m 332.212,56.641 -41.22,41.374 41.374,-41.219 c 22.756,-22.671 41.374,-41.29 41.374,-41.374 0,-0.429 -3.211,2.758 -41.528,41.219 M 50.687,61.985 C 70.334,81.634 86.546,97.71 86.714,97.71 86.882,97.71 70.944,81.634 51.298,61.985 31.651,42.336 15.439,26.26 15.271,26.26 c -0.168,0 15.769,16.076 35.416,35.725 m 85.191,85.191 c 22.838,22.839 41.661,41.526 41.829,41.526 0.167,0 -18.381,-18.687 -41.218,-41.526 -22.838,-22.84 -41.661,-41.527 -41.829,-41.527 -0.168,0 18.38,18.687 41.218,41.527 m 47.328,47.328 c 2.84,2.855 5.301,5.191 5.469,5.191 0.168,0 -2.018,-2.336 -4.858,-5.191 -2.84,-2.855 -5.301,-5.191 -5.469,-5.191 -0.168,0 2.018,2.336 4.858,5.191 m 58.321,58.32 c 22.838,22.84 41.66,41.527 41.828,41.527 0.168,0 -18.38,-18.687 -41.218,-41.527 -22.837,-22.839 -41.66,-41.526 -41.828,-41.526 -0.168,0 18.38,18.687 41.218,41.526 m -143.531,38.016 -3.645,3.816 3.817,-3.645 c 3.545,-3.385 4.096,-3.988 3.645,-3.988 -0.095,0 -1.812,1.717 -3.817,3.817 M 50.685,338.168 14.962,374.046 50.84,338.323 c 33.35,-33.207 36.152,-36.033 35.723,-36.033 -0.085,0 -16.23,16.145 -35.878,35.878 m 281.529,5.343 c 22.67,22.672 41.355,41.222 41.523,41.222 0.168,0 -18.243,-18.55 -40.913,-41.222 -22.669,-22.671 -41.355,-41.221 -41.523,-41.221 -0.168,0 18.243,18.55 40.913,41.221"
           id="path4"
           inkscape:connector-curvature="0"
           style="fill:#f0f0f0;fill-rule:evenodd;stroke:none" />
      </g>
    </g>
  </g>
</svg>
